<?xml version="1.0" standalone="no"?>
<!DOCTYPE svg PUBLIC "-//W3C//DTD SVG 20010904//EN"
 "http://www.w3.org/TR/2001/REC-SVG-20010904/DTD/svg10.dtd">
<svg version="1.0" xmlns="http://www.w3.org/2000/svg"
 width="2480.000000pt" height="2480.000000pt" viewBox="0 0 2480.000000 2480.000000"
 preserveAspectRatio="xMidYMid meet">
<metadata>
Created by potrace 1.11, written by Peter Selinger 2001-2013
</metadata>
<g transform="translate(0.000000,2480.000000) scale(0.100000,-0.100000)"
fill="#000000" stroke="none">
<path d="M12420 23483 c0 -59 -10 -85 -29 -78 -32 13 -35 9 -43 -44 -10 -64
-56 -171 -73 -171 -7 0 -18 7 -26 16 -11 14 -15 8 -25 -44 -16 -78 -60 -166
-100 -201 -23 -21 -33 -40 -38 -74 -14 -95 -128 -264 -160 -237 -11 8 -14 -4
-18 -54 -4 -43 -16 -87 -37 -132 l-31 -67 32 -42 33 -43 12 71 c24 141 85 302
137 364 13 15 29 46 36 68 24 77 88 185 109 185 22 0 38 -171 25 -252 l-6 -37
-48 52 -48 52 26 -75 c24 -66 27 -90 27 -205 0 -161 -22 -237 -102 -357 -56
-83 -58 -96 -27 -145 21 -33 71 -30 122 7 l42 30 31 -42 c54 -75 129 -205 175
-303 l44 -95 0 -398 c0 -219 -3 -562 -7 -762 l-6 -362 -60 5 c-217 20 -396
268 -421 587 -8 108 -38 205 -106 344 -33 67 -60 127 -60 133 0 7 -3 14 -7 16
-5 3 -6 -25 -5 -61 8 -137 -30 -384 -84 -551 -33 -102 -122 -282 -175 -354
-52 -69 -57 -63 -58 58 l0 80 49 60 c59 70 121 185 146 270 26 86 26 270 0
345 -24 70 -61 146 -93 188 l-24 33 -42 -31 c-96 -70 -184 -150 -250 -225
-139 -160 -275 -393 -361 -615 -20 -52 -43 -108 -50 -125 l-14 -30 -55 56
c-113 116 -175 280 -164 439 7 100 35 198 84 293 52 99 175 212 296 272 98 48
256 90 305 80 50 -11 -80 53 -173 84 -249 84 -495 92 -767 24 -94 -23 -123
-25 -330 -27 -124 0 -229 -3 -231 -6 -3 -3 -1 -56 4 -118 l10 -112 -114 -112
c-226 -225 -287 -347 -527 -1048 -123 -360 -237 -666 -281 -752 -23 -45 -122
-112 -292 -199 l-118 -60 7 28 c23 102 125 288 229 418 35 44 62 81 61 83 -2
1 -23 -3 -48 -9 -129 -35 -225 67 -221 233 2 48 31 153 68 243 4 11 -21 -20
-56 -69 -35 -50 -100 -127 -144 -172 -125 -127 -228 -184 -336 -184 -53 0 -64
4 -88 28 -30 30 -47 99 -36 145 5 20 -14 5 -82 -62 -105 -103 -274 -229 -369
-273 -122 -57 -213 -45 -256 33 -16 27 -18 48 -14 104 2 39 8 81 12 93 l7 24
-54 -28 c-108 -54 -188 -76 -301 -81 -90 -5 -117 -2 -176 16 -193 58 -327 250
-351 503 l-8 83 -2 -100 c-3 -267 106 -499 269 -574 90 -41 250 -39 364 5 15
6 1 -28 -56 -137 -422 -816 -1084 -1230 -1972 -1230 -173 -1 -314 15 -425 47
l-53 15 23 25 c12 13 30 24 38 24 9 0 -21 13 -65 29 -147 51 -282 142 -334
225 -11 19 -46 118 -79 222 l-58 189 -29 -2 c-110 -9 -431 -47 -530 -63 -215
-35 -219 -36 -256 -85 -28 -38 -41 -46 -88 -57 -41 -9 -67 -23 -100 -54 -37
-34 -59 -46 -114 -58 -187 -44 -517 -146 -712 -221 -356 -138 -658 -300 -899
-480 -515 -388 -776 -814 -752 -1231 5 -95 34 -234 59 -289 10 -22 8 -29 -11
-49 l-22 -24 27 -53 c43 -87 116 -188 192 -270 l71 -76 -25 -26 -24 -26 57
-46 c32 -26 68 -51 80 -57 15 -8 37 -48 74 -137 125 -304 199 -576 246 -911
25 -182 25 -672 0 -860 -35 -259 -103 -542 -182 -755 -27 -75 -34 -111 -41
-215 -14 -203 -12 -216 28 -308 54 -123 95 -188 169 -261 73 -74 169 -130 265
-155 70 -18 220 -21 304 -6 30 5 64 11 74 12 29 4 138 -131 191 -234 75 -149
69 -237 -21 -317 -65 -57 -139 -92 -347 -165 -103 -36 -194 -69 -201 -73 -10
-6 -2 -70 40 -308 95 -537 188 -916 333 -1353 l77 -234 -27 -22 -27 -23 69
-168 c354 -865 858 -1525 1473 -1929 262 -173 617 -362 874 -466 l133 -54 46
-86 c160 -297 387 -503 641 -580 96 -29 244 -26 308 7 94 49 148 134 149 233
0 53 -4 71 -24 99 l-24 34 34 -6 c67 -13 287 -37 422 -46 l139 -11 82 -84
c240 -243 607 -474 963 -605 263 -96 644 -171 877 -171 45 0 89 -10 174 -40
186 -66 290 -84 487 -84 186 0 253 11 405 65 47 17 112 36 146 44 121 27 182
69 255 177 44 65 26 61 182 32 124 -24 252 -69 402 -144 232 -116 412 -261
545 -441 l60 -81 -59 -39 c-65 -44 -120 -114 -152 -199 -30 -77 -37 -232 -14
-320 37 -142 133 -273 245 -334 45 -25 54 -27 61 -13 5 8 25 34 44 57 l36 43
-53 29 c-112 61 -188 168 -204 286 l-7 53 34 -3 c31 -3 34 -6 41 -46 17 -99
102 -199 203 -237 l45 -18 39 36 c95 85 197 127 311 127 l69 0 25 42 c14 23
35 75 48 115 22 71 24 73 56 73 17 0 32 -3 32 -6 0 -21 -35 -134 -56 -181 -13
-31 -22 -59 -19 -62 4 -3 33 -15 65 -27 l59 -21 26 59 c34 75 45 150 45 315 0
270 -77 525 -213 705 -85 113 -157 148 -227 110 -107 -59 -109 -264 -2 -352
53 -44 61 -40 64 33 3 62 3 62 35 65 37 4 97 -25 135 -65 71 -75 93 -220 46
-311 -32 -63 -71 -82 -168 -82 -227 0 -380 209 -380 517 1 186 60 331 162 396
70 45 215 36 327 -20 72 -37 195 -154 258 -245 137 -199 245 -495 288 -793
l16 -110 -139 -138 c-77 -75 -136 -139 -132 -142 4 -3 36 -11 71 -20 80 -18
206 -19 282 -1 52 12 62 12 90 -2 19 -10 65 -18 115 -20 45 -2 82 -7 82 -11
-1 -15 -131 -187 -210 -275 -87 -99 -209 -211 -302 -276 -29 -21 -130 -81
-225 -133 -347 -193 -661 -402 -890 -592 l-108 -90 55 -9 c70 -12 198 4 310
39 104 33 323 136 418 198 l70 45 -28 -61 c-46 -103 -53 -156 -48 -356 3 -100
7 -184 11 -187 33 -33 208 149 537 561 169 211 358 528 423 712 25 68 88 315
102 396 5 32 9 37 34 37 l28 0 6 -157 c17 -392 4 -747 -43 -1168 -50 -462 -61
-617 -61 -887 0 -142 2 -266 5 -275 4 -14 -32 -53 -144 -158 -83 -77 -150
-144 -150 -150 0 -25 69 -126 124 -181 152 -152 404 -193 709 -117 63 16 88
33 50 33 -34 1 -117 55 -149 97 -39 51 -59 135 -49 207 3 28 22 112 42 186 30
115 36 156 41 278 2 78 6 142 8 142 3 0 50 -23 105 -51 56 -28 107 -48 113
-46 15 6 61 140 81 239 59 280 7 517 -185 845 -17 29 -29 53 -26 53 2 0 23
-25 46 -57 24 -31 99 -124 168 -206 224 -270 332 -368 362 -332 17 20 18 373
1 440 -6 27 -23 71 -37 98 -13 27 -24 50 -24 53 0 2 28 -15 63 -37 78 -51 278
-149 377 -184 97 -35 205 -55 288 -55 83 0 112 8 112 29 0 35 -84 262 -134
366 -135 274 -271 436 -428 510 l-48 22 64 7 c81 8 173 38 256 83 77 42 160
101 160 114 0 5 -11 26 -24 47 l-24 38 53 28 c29 15 81 56 114 91 219 228 196
621 -46 775 l-42 27 26 39 c204 306 631 573 1011 634 37 6 77 13 89 16 18 3
30 -7 61 -53 75 -110 138 -155 248 -177 38 -8 105 -28 149 -44 141 -52 231
-67 415 -66 190 1 296 19 482 83 99 34 128 40 236 45 641 31 1299 312 1743
743 l116 113 139 10 c136 10 356 34 423 47 l34 6 -23 -33 c-71 -100 -9 -265
126 -331 62 -31 66 -31 171 -27 123 6 194 28 316 97 182 105 341 279 464 511
l39 73 140 59 c434 183 870 438 1149 672 199 167 365 340 526 546 267 343 488
734 680 1205 l57 140 -25 27 -26 27 66 198 c154 466 257 887 353 1451 23 137
34 226 28 231 -5 5 -94 39 -199 76 -104 37 -216 81 -248 98 -75 39 -140 97
-162 143 -43 91 29 275 169 431 44 49 49 51 74 41 15 -6 88 -13 162 -15 219
-8 325 31 465 172 92 92 134 159 182 287 l34 90 -13 137 c-17 178 -17 844 0
1046 61 715 200 1408 421 2095 28 85 49 156 47 157 -1 2 -20 -22 -41 -53 -39
-57 -179 -204 -193 -204 -4 0 -15 12 -25 26 l-18 25 61 66 c79 86 142 175 187
263 l36 70 -21 23 -21 23 25 78 c67 211 53 445 -41 674 -109 269 -341 541
-670 786 -381 285 -891 513 -1499 671 -158 41 -172 47 -210 84 -29 28 -58 44
-101 56 -50 14 -66 24 -94 60 -35 43 -35 44 -145 64 -61 11 -142 25 -181 31
-73 11 -489 58 -492 56 -1 -1 -30 -91 -64 -201 l-63 -200 -71 -70 c-103 -104
-227 -164 -423 -205 -48 -10 -76 -19 -62 -19 14 0 64 8 112 18 80 17 89 17
101 2 30 -35 28 -39 -26 -55 -109 -32 -250 -48 -422 -47 -795 0 -1401 324
-1831 976 -74 113 -209 363 -200 372 2 3 29 -1 59 -7 84 -19 204 -9 269 23
159 78 254 272 263 537 3 104 2 114 -5 56 -29 -225 -118 -383 -270 -473 -129
-77 -332 -71 -528 16 -41 18 -76 30 -79 27 -3 -2 0 -21 7 -41 17 -51 9 -145
-15 -178 -49 -67 -145 -73 -259 -17 -86 43 -295 201 -377 286 l-66 69 1 -50
c1 -102 -37 -145 -128 -145 -63 0 -136 26 -205 72 -61 41 -195 178 -251 257
-78 109 -81 111 -48 26 45 -115 51 -231 15 -307 -34 -76 -74 -103 -152 -102
-33 0 -71 7 -85 14 l-25 13 28 -34 c67 -83 137 -179 175 -243 42 -70 102 -212
102 -241 0 -20 -172 65 -300 150 -92 62 -96 65 -123 132 -75 180 -159 408
-264 718 -227 671 -296 809 -522 1033 l-103 103 10 117 c5 64 7 119 5 122 -3
3 -109 6 -236 7 -212 1 -241 3 -335 26 -270 67 -526 60 -766 -22 -75 -26 -227
-98 -179 -86 45 12 215 -32 313 -82 129 -64 250 -182 303 -293 52 -110 71
-189 71 -305 1 -125 -26 -217 -96 -321 -51 -76 -116 -141 -127 -127 -4 4 -22
49 -40 98 -134 365 -349 676 -593 857 -37 28 -68 53 -68 56 0 3 9 16 21 28 20
22 20 23 3 60 -19 40 -85 114 -118 131 -18 10 -14 18 51 110 99 139 228 280
327 359 81 64 84 68 79 100 -5 33 -4 34 26 34 18 0 42 -5 53 -11 20 -11 20 -9
16 93 -3 81 -8 113 -26 149 -66 135 -224 208 -428 196 l-91 -5 -13 41 c-15 54
-73 169 -104 210 -14 18 -34 57 -46 88 -24 66 -85 163 -125 199 -15 14 -38 49
-51 79 -18 40 -54 84 -142 171 -65 65 -136 127 -158 138 -21 11 -63 36 -93 56
-29 20 -64 36 -77 36 -21 0 -24 -5 -24 -37z m8 -175 c-2 -6 -15 -18 -28 -27
l-24 -16 18 28 c18 27 41 38 34 15z m-109 -206 c1 -30 -1 -32 -20 -22 -15 9
-24 8 -35 -1 -8 -6 -14 -9 -14 -6 0 10 23 60 39 86 l15 24 7 -24 c4 -13 7 -39
8 -57z m333 8 c14 -30 30 -66 34 -80 l7 -25 -23 20 c-21 18 -70 115 -70 137 0
25 28 -3 52 -52z m-322 -570 c16 -75 9 -186 -17 -260 -20 -57 -71 -145 -79
-137 -12 12 -4 220 12 287 20 93 53 182 63 175 5 -2 14 -32 21 -65z m824
-1425 l56 -85 -11 -52 c-17 -77 -5 -218 25 -314 26 -82 79 -173 147 -255 37
-45 39 -50 38 -115 -1 -38 -4 -82 -8 -99 l-6 -30 -48 66 c-101 143 -195 380
-233 594 -15 84 -30 375 -20 375 3 0 30 -38 60 -85z m-1228 -793 c-42 -250
-142 -512 -263 -694 -53 -79 -177 -201 -245 -241 -99 -57 -235 -69 -317 -27
-111 57 -165 183 -165 385 0 125 20 223 62 299 25 44 33 51 97 76 80 30 143
62 197 98 90 59 188 -27 188 -166 0 -32 -7 -79 -16 -105 -28 -81 -121 -154
-186 -145 -21 3 -23 9 -26 66 -2 36 -7 62 -14 62 -23 0 -106 -96 -117 -135
-24 -87 -7 -172 46 -227 39 -41 75 -44 138 -13 120 58 251 297 297 541 8 38
18 64 25 64 7 0 37 9 68 21 76 28 163 111 206 194 19 36 36 60 37 55 2 -6 -3
-54 -12 -108z m1120 -359 c109 -291 247 -477 435 -584 32 -18 44 -29 29 -25
-14 2 -100 10 -192 17 l-167 13 -39 85 c-94 203 -153 474 -151 691 l0 75 24
-87 c13 -47 41 -131 61 -185z m-655 -647 c-48 -48 -51 -49 -69 -32 -11 9 -34
43 -51 75 -109 206 -71 446 98 603 l66 62 3 -329 2 -329 -49 -50z m-4635 148
c-161 -478 -450 -946 -796 -1295 -492 -494 -1092 -756 -1845 -805 -103 -7
-109 -6 -96 10 36 43 66 54 181 65 507 52 903 185 1275 429 435 284 778 684
1043 1212 49 96 105 217 125 268 25 62 54 113 89 156 29 36 54 63 55 62 2 -1
-12 -47 -31 -102z m9499 -159 c156 -368 357 -689 610 -975 353 -400 842 -692
1370 -818 133 -32 346 -65 491 -77 73 -6 84 -10 120 -41 l39 -35 -115 6 c-988
53 -1764 517 -2305 1380 -78 124 -202 365 -259 500 -32 77 -116 309 -116 321
0 2 24 -24 53 -58 40 -48 67 -97 112 -203z m-13333 -671 c22 -76 52 -156 65
-178 l25 -38 -23 -24 -22 -24 -34 47 c-30 43 -103 243 -103 284 0 17 39 83 46
77 2 -3 23 -67 46 -144z m17151 103 l19 -35 -37 -116 c-21 -64 -51 -137 -67
-162 l-29 -46 -25 22 -24 23 21 36 c12 20 37 88 56 151 40 137 53 171 62 166
3 -3 14 -20 24 -39z m-18140 -189 c-5 -10 -549 -613 -722 -801 l-26 -29 55 23
c176 71 454 159 639 203 l104 24 -48 -48 c-37 -38 -60 -52 -109 -65 -324 -90
-701 -242 -934 -376 -385 -222 -701 -550 -702 -727 0 -69 56 -159 120 -192 51
-26 158 -43 236 -38 l64 4 -37 -39 -38 -39 -95 5 c-113 5 -179 29 -236 88 -21
21 -41 39 -46 39 -4 0 -89 -90 -189 -200 -147 -162 -184 -198 -195 -189 -25
21 -104 146 -135 214 -89 198 -96 454 -16 666 161 428 623 848 1247 1134 274
125 587 231 990 334 41 11 76 20 78 20 2 1 0 -5 -5 -11z m19212 -42 c635 -165
1164 -410 1538 -711 306 -246 525 -539 599 -800 20 -69 23 -103 23 -245 0
-161 -1 -167 -33 -260 -18 -52 -47 -119 -65 -150 -40 -71 -97 -150 -107 -150
-5 0 -90 90 -190 200 -100 110 -183 200 -185 200 -3 0 -23 -20 -45 -44 -57
-61 -123 -88 -235 -93 l-90 -5 -37 39 -37 38 66 -3 c85 -5 176 13 229 44 47
27 100 100 110 150 26 139 -146 368 -452 601 -266 202 -648 379 -1144 527 -73
22 -92 33 -130 72 l-45 46 35 -7 c146 -28 492 -135 677 -210 l87 -35 -35 37
c-170 180 -727 803 -717 803 7 0 90 -20 183 -44z m-18725 -605 c0 -4 -5 -22
-11 -39 -9 -28 -16 -31 -77 -42 -37 -6 -145 -29 -241 -51 -95 -22 -175 -38
-178 -36 -2 3 24 25 58 50 53 40 76 49 173 72 233 54 276 61 276 46z m18202
-21 c220 -46 239 -53 313 -109 38 -28 65 -51 61 -51 -4 0 -60 13 -124 29 -64
16 -179 42 -254 57 -134 26 -137 27 -147 57 -13 37 -14 47 -1 47 5 0 73 -13
152 -30z m-19842 -762 c-53 -63 -190 -231 -227 -278 -20 -25 -4 57 23 118 29
66 62 106 128 156 40 30 108 69 134 75 1 1 -25 -32 -58 -71z m21455 -59 c33
-37 61 -79 74 -114 41 -109 25 -101 -101 52 -66 81 -128 157 -137 167 -12 14
1 10 47 -14 37 -20 85 -57 117 -91z m233 -427 c30 -23 32 -27 16 -33 -24 -10
-151 -11 -195 -2 l-33 6 37 31 c33 28 43 31 89 27 37 -2 62 -11 86 -29z
m-21881 1 c36 -27 36 -28 12 -34 -31 -9 -167 -11 -197 -3 -21 6 -21 8 15 35
53 40 120 40 170 2z m20923 -647 c74 -78 163 -148 262 -205 l83 -47 42 -101
c124 -302 205 -628 244 -983 16 -146 16 -520 0 -670 -54 -520 -219 -1021 -470
-1434 -25 -42 -39 -76 -36 -87 9 -27 126 -132 194 -174 l60 -37 -25 -27 c-14
-14 -41 -50 -61 -78 -20 -29 -39 -53 -42 -53 -5 1 -293 364 -345 436 -11 15
-20 6 -75 -76 -154 -231 -224 -442 -223 -680 0 -290 103 -514 326 -708 46 -40
162 -124 203 -147 3 -1 -52 -247 -87 -385 -46 -183 -134 -473 -192 -631 l-50
-138 -24 17 c-13 9 -24 21 -24 26 0 5 27 88 60 185 89 264 160 524 235 867 4
17 -10 30 -67 70 -160 109 -310 288 -378 451 -61 145 -73 212 -74 393 0 137 3
180 21 251 62 246 165 440 347 657 49 58 62 82 68 119 4 26 6 49 4 50 -2 2
-45 -44 -97 -102 -52 -58 -97 -105 -101 -105 -4 0 -15 11 -24 25 -16 24 -15
27 27 82 24 31 93 106 153 167 l109 110 53 128 c103 248 149 433 180 718 24
220 24 637 1 830 -52 422 -164 839 -366 1360 l-21 55 28 -35 c15 -19 52 -61
82 -94z m-18405 -1098 c91 -18 210 -83 279 -151 101 -99 146 -211 146 -362 0
-305 -222 -525 -495 -490 l-57 7 61 54 c82 75 116 145 116 239 -1 60 -6 79
-31 125 -69 124 -221 172 -356 112 -237 -104 -197 -464 83 -744 91 -90 261
-198 314 -198 8 0 44 44 81 98 205 296 421 503 741 708 332 213 710 326 1088
326 458 0 808 -173 880 -437 l17 -60 -219 -378 -218 -378 -130 -64 c-233 -115
-540 -201 -865 -241 -91 -12 -211 -17 -370 -17 -246 -1 -383 12 -585 55 -55
11 -109 21 -120 22 -29 2 -139 -224 -204 -417 -269 -802 -193 -1535 192 -1847
118 -96 299 -170 452 -186 36 -4 65 -8 65 -11 0 -2 -28 -53 -62 -114 l-63
-110 -35 6 c-63 11 -213 66 -305 113 -132 66 -228 134 -337 240 -246 238 -392
549 -444 942 -19 150 -14 448 11 605 43 275 140 577 264 822 28 57 51 105 51
107 0 2 -28 20 -62 39 -279 156 -501 424 -584 704 -20 68 -27 117 -31 218 -6
154 8 231 65 345 42 85 155 209 234 254 128 74 279 97 433 64z m13901 -101
c161 -41 334 -115 443 -190 l43 -30 -5 -186 c-10 -399 -94 -667 -422 -1351
-234 -489 -321 -705 -385 -955 -53 -206 -71 -349 -68 -526 l3 -144 115 1 c332
3 785 200 1059 460 199 190 281 339 371 679 278 1050 565 1790 763 1972 105
96 243 138 374 114 115 -20 240 -89 277 -152 18 -30 18 -31 -5 -46 -57 -37
-192 -189 -259 -289 -141 -212 -314 -592 -496 -1089 -42 -115 -79 -215 -81
-222 -3 -7 18 -13 64 -18 37 -3 80 -9 95 -11 l27 -5 -65 -76 c-144 -164 -278
-409 -358 -653 -44 -134 -96 -360 -96 -417 0 -19 -37 -94 -106 -214 -58 -101
-140 -243 -182 -316 -42 -73 -77 -131 -79 -130 -1 2 -10 48 -18 102 -19 114
-21 341 -6 485 6 52 11 104 11 114 0 13 -26 -9 -82 -69 -252 -269 -623 -494
-968 -588 -103 -27 -130 -31 -260 -31 -184 -1 -231 15 -313 104 -137 148 -163
324 -112 750 13 113 27 252 31 310 11 177 -20 323 -89 419 l-35 48 51 7 c29 3
78 6 110 6 l58 0 112 228 c301 606 415 988 405 1357 l-3 120 -60 22 c-145 52
-384 71 -545 43 -241 -41 -467 -163 -640 -346 -87 -92 -138 -166 -186 -269
-53 -115 -67 -190 -61 -330 6 -135 27 -214 81 -293 120 -179 362 -176 452 5
28 56 26 184 -3 238 -48 91 -142 146 -249 149 l-63 1 52 53 c32 33 80 67 126
90 70 34 81 37 165 37 81 0 98 -3 158 -32 163 -77 249 -243 235 -457 -10 -153
-59 -260 -164 -356 -130 -119 -331 -172 -521 -140 -469 79 -672 730 -394 1262
191 367 604 665 1049 757 142 30 140 30 353 26 169 -3 208 -6 296 -28z m-6669
-897 c114 -57 203 -173 203 -267 0 -24 -22 -106 -54 -199 -30 -87 -52 -161
-50 -164 3 -3 56 -5 117 -5 82 1 122 5 150 17 26 12 37 13 37 5 0 -25 -59
-134 -94 -174 -49 -56 -159 -110 -250 -122 -37 -6 -69 -11 -71 -13 -1 -2 -44
-124 -95 -273 -51 -148 -95 -276 -97 -282 -4 -10 15 -13 75 -13 l81 0 -54 -75
c-102 -143 -198 -367 -258 -605 -29 -113 -32 -139 -32 -280 0 -161 6 -190 50
-234 15 -14 12 -23 -32 -98 -28 -47 -57 -84 -67 -86 -10 -2 -46 10 -81 27
-160 79 -259 276 -258 516 1 237 79 569 285 1213 44 139 78 256 74 259 -9 9
-223 10 -263 1 -41 -9 -42 1 -9 76 49 110 149 177 298 199 l78 11 21 66 c12
36 58 170 102 298 91 267 82 258 194 202z m-8852 -1029 c117 -126 148 -167
140 -190 -16 -52 -29 -44 -141 79 -95 105 -111 128 -131 187 -12 38 -22 70
-23 72 -1 9 84 -72 155 -148z m11084 35 c144 -73 391 -132 696 -166 261 -30
324 -81 312 -252 l-5 -78 80 0 79 0 -34 -42 c-149 -184 -311 -548 -363 -814
-8 -44 -15 -121 -15 -172 l-1 -92 -65 -113 c-36 -61 -67 -114 -69 -116 -6 -6
-60 26 -106 62 -79 63 -140 184 -154 305 -9 83 16 207 85 429 70 222 101 337
101 371 0 80 -67 176 -159 225 -46 25 -162 70 -166 65 -1 -2 -9 -45 -19 -96
-33 -178 -114 -427 -220 -674 -58 -136 -193 -408 -213 -430 -36 -40 -63 -9
-63 70 0 36 10 72 36 128 20 44 56 131 81 194 25 63 51 129 58 145 43 95 91
318 101 467 10 134 -3 266 -25 273 -27 8 -83 67 -98 103 -26 63 -34 136 -23
208 6 37 15 75 20 84 9 16 13 14 46 -17 20 -19 66 -49 103 -67z m7669 53 c161
-53 272 -198 272 -353 0 -77 -11 -118 -52 -185 -83 -137 -265 -179 -388 -90
-43 31 -80 95 -80 139 0 14 9 44 20 68 l19 42 37 -25 c48 -33 108 -33 154 -2
84 56 49 185 -62 231 -46 20 -138 21 -182 2 -52 -22 -113 -83 -132 -132 -76
-200 180 -543 475 -635 l55 -17 -51 -31 c-51 -32 -52 -32 -36 -59 15 -27 13
-31 -132 -282 -145 -251 -166 -284 -151 -245 5 11 10 48 13 81 19 219 -163
454 -522 675 l-85 51 45 35 c25 19 45 35 45 37 0 2 -7 23 -16 47 -26 69 -23
218 6 294 110 286 457 451 748 354z m-12066 -100 c114 -24 187 -88 208 -182
l13 -55 62 53 c117 99 257 166 389 187 233 36 442 -95 515 -324 l12 -36 -428
-740 -427 -741 -65 -7 c-148 -16 -287 33 -383 133 -30 32 -57 65 -60 73 -3 8
-8 13 -11 10 -3 -3 -73 -266 -157 -585 -83 -318 -158 -591 -165 -605 -21 -40
-76 -87 -130 -111 -59 -27 -182 -32 -255 -11 l-46 13 179 632 c99 348 219 776
268 952 50 176 96 334 103 350 7 17 76 249 152 517 113 397 142 488 156 488 9
0 41 -5 70 -11z m2706 -20 c150 -65 210 -209 155 -371 l-20 -58 75 0 74 0 -18
-27 c-291 -435 -392 -902 -227 -1054 47 -45 93 -63 155 -63 146 1 295 149 348
346 18 69 21 101 18 202 -4 123 -5 126 -65 265 -5 11 8 13 68 10 l73 -4 14 50
c53 197 139 470 163 522 41 86 119 156 206 183 65 20 263 40 263 26 0 -4 -34
-105 -75 -224 -41 -119 -75 -220 -75 -224 0 -5 37 -8 82 -8 l82 0 -26 -27
c-73 -78 -178 -278 -241 -460 -64 -183 -90 -320 -93 -483 l-2 -145 -60 -104
c-34 -57 -66 -109 -71 -114 -28 -28 -148 95 -192 196 -13 31 -27 57 -30 57 -4
0 -19 -19 -34 -41 -101 -154 -273 -263 -435 -276 -88 -7 -224 18 -308 57 -118
54 -218 181 -253 320 -17 68 -17 270 0 360 7 36 35 133 61 215 38 116 153 499
267 888 4 16 11 18 41 12 21 -4 56 -15 80 -26z m4075 21 c125 -20 236 -97 277
-192 31 -71 25 -195 -13 -286 -119 -287 -467 -548 -875 -656 l-87 -23 3 -34
c7 -59 40 -176 67 -234 37 -77 121 -165 190 -199 81 -39 185 -59 268 -51 l68
6 -31 -53 c-17 -29 -43 -75 -58 -102 l-27 -48 -125 5 c-208 10 -346 57 -482
166 -88 69 -141 137 -203 255 -104 201 -112 429 -24 682 165 476 653 830 1052
764z m-8200 -15 c109 -28 214 -98 258 -170 l18 -29 16 37 c34 83 115 143 223
166 60 13 262 15 262 3 0 -6 -122 -341 -155 -424 -6 -16 1 -18 76 -18 l83 0
-26 -27 c-113 -123 -259 -447 -319 -709 -17 -76 -23 -134 -24 -249 l-2 -150
-62 -107 c-71 -123 -66 -122 -153 -40 -48 45 -108 148 -108 186 -1 50 -16 47
-66 -15 -103 -129 -284 -244 -434 -275 -129 -27 -294 -6 -418 53 -79 38 -171
132 -210 213 -85 181 -82 428 9 704 140 424 441 770 739 850 72 19 221 20 293
1z m-5299 -144 c185 -209 309 -447 362 -691 27 -125 25 -345 -4 -463 -60 -244
-217 -466 -430 -612 -69 -46 -72 -51 -67 -80 46 -226 170 -676 258 -926 l43
-125 -24 -18 c-13 -10 -26 -16 -28 -13 -14 13 -129 354 -182 538 -54 186 -158
608 -150 613 2 2 37 24 78 51 92 59 273 240 318 317 94 159 134 305 133 488 0
178 -33 321 -116 495 -44 91 -130 231 -156 251 -11 10 -46 -29 -189 -212 -96
-123 -177 -224 -180 -223 -3 0 -18 21 -35 47 -16 26 -45 64 -63 84 l-33 37 43
27 c167 104 300 265 343 417 9 32 20 57 24 55 4 -2 29 -27 55 -57z m3301 -297
c42 -5 171 -46 183 -58 2 -2 -45 -88 -103 -190 l-107 -186 -62 0 c-38 0 -77
-8 -102 -19 -139 -63 -202 -248 -129 -379 l29 -54 -23 -44 c-30 -55 -45 -56
-141 -8 -141 71 -246 214 -272 368 -24 145 31 296 147 404 73 69 133 105 233
138 114 39 207 46 347 28z m14772 -469 c141 -42 247 -201 230 -346 -7 -54 -50
-159 -65 -159 -6 0 -14 12 -20 28 -48 133 -206 194 -306 118 -56 -42 -80 -97
-80 -186 -1 -88 20 -137 80 -190 69 -60 116 -75 239 -75 103 0 114 2 178 32
37 18 92 56 123 84 l55 53 -93 -162 c-72 -125 -99 -164 -118 -169 -47 -13
-224 -7 -305 11 -270 60 -435 253 -435 511 0 81 19 165 54 233 87 171 293 268
463 217z m-9158 -115 c-13 -22 -25 -40 -28 -40 -3 1 -18 19 -33 40 l-28 40 56
0 55 0 -22 -40z m4861 31 c0 -18 -18 -21 -30 -6 -10 13 -9 15 9 15 11 0 21 -4
21 -9z m-13741 -3215 c304 -495 678 -872 1153 -1166 139 -86 569 -311 643
-337 l30 -10 1 141 c1 111 6 158 22 220 30 108 86 220 139 277 l44 47 -145 76
c-251 131 -576 332 -559 346 4 3 20 11 34 17 23 10 33 7 75 -21 99 -67 349
-209 507 -287 l161 -81 52 12 c80 19 216 9 292 -22 87 -36 164 -84 230 -144
l57 -51 0 86 c1 133 32 209 105 259 30 21 44 23 95 19 165 -12 313 -154 440
-420 30 -62 56 -105 58 -97 2 8 10 38 16 65 15 66 50 134 81 157 86 63 223 10
327 -127 l52 -69 -30 -18 -30 -19 31 -42 c48 -63 120 -174 120 -185 0 -5 -48
-21 -107 -35 -638 -157 -1293 -82 -1872 213 l-113 58 -19 -43 c-38 -85 -51
-173 -46 -295 3 -63 8 -124 12 -135 4 -11 3 -15 -2 -9 -4 6 -62 34 -128 63
-440 193 -858 459 -1160 737 -211 195 -468 519 -630 794 -21 36 -47 80 -57 98
l-20 32 39 0 c37 0 39 -2 102 -104z m19999 32 c-62 -111 -238 -372 -323 -478
-176 -222 -401 -441 -617 -603 -228 -171 -649 -410 -935 -531 l-82 -35 7 32
c4 18 7 86 7 152 0 98 -4 133 -23 190 -13 39 -27 76 -31 84 -6 10 -35 -1 -120
-43 -515 -259 -1080 -347 -1641 -256 -132 22 -319 67 -334 81 -10 9 33 80 106
175 l47 62 -29 12 c-17 7 -30 17 -30 22 0 15 76 113 110 142 107 90 233 97
289 17 26 -37 61 -136 61 -171 0 -47 13 -36 44 38 112 262 284 440 443 459 66
7 95 0 137 -38 60 -52 100 -202 78 -296 l-10 -43 69 64 c73 68 187 133 278
160 64 19 192 21 253 5 42 -12 45 -11 188 61 177 88 264 137 441 246 130 80
137 83 168 71 17 -6 31 -14 31 -18 0 -21 -391 -257 -597 -360 -60 -30 -110
-55 -112 -56 -2 -1 17 -26 43 -54 57 -63 107 -165 137 -279 18 -67 23 -113 23
-221 1 -117 3 -136 16 -131 8 3 101 46 205 97 608 293 1000 598 1356 1054 85
111 204 281 270 388 42 69 46 73 81 73 l37 0 -41 -72z m-4361 -133 c121 -36
227 -229 209 -380 -10 -80 -66 -231 -122 -329 -29 -50 -51 -92 -50 -94 2 -1
16 2 31 8 22 8 35 7 64 -7 37 -18 96 -92 90 -112 -2 -6 -45 13 -96 43 l-93 54
-32 -41 c-17 -23 -36 -48 -42 -56 -9 -11 -4 -11 19 2 100 51 188 21 240 -83
23 -45 30 -142 16 -212 l-12 -56 -67 22 c-101 35 -231 90 -343 147 -101 50
-101 50 -95 82 21 115 194 624 302 891 7 18 4 19 -47 12 -154 -20 -279 -148
-368 -378 l-26 -67 -33 21 c-31 20 -33 23 -27 62 38 229 189 425 364 472 60
16 59 16 118 -1z m-11191 -25 c149 -74 270 -256 299 -451 7 -45 6 -47 -28 -66
l-34 -21 -18 57 c-49 157 -170 319 -276 369 -44 20 -149 41 -149 29 0 -3 24
-67 54 -144 115 -295 263 -760 252 -790 -10 -25 -343 -175 -482 -217 -28 -9
-35 8 -41 111 -5 65 -2 93 12 129 46 120 143 162 248 107 l30 -15 -34 47 c-18
26 -37 49 -41 51 -4 3 -51 -20 -104 -51 -52 -30 -97 -55 -100 -55 -8 0 19 57
43 89 33 43 83 64 118 51 38 -15 39 -14 10 33 -81 130 -155 329 -155 417 0 80
44 199 101 271 66 84 186 104 295 49z m-436 -1080 c0 -51 -20 -53 -43 -5 -22
46 -22 45 13 45 28 0 30 -2 30 -40z m11940 33 c0 -15 -40 -73 -50 -73 -5 0
-10 18 -10 40 0 38 2 40 30 40 17 0 30 -3 30 -7z m-8609 -433 c35 -156 29
-402 -15 -620 -33 -162 -33 -161 -120 -209 -41 -22 -79 -41 -84 -41 -12 0 -22
91 -23 203 l-1 89 -48 -7 c-44 -6 -50 -5 -60 17 -21 39 -114 161 -164 211
l-47 48 82 -7 c46 -4 126 -14 180 -23 l97 -17 10 33 c8 27 7 33 -7 37 -39 13
-226 36 -331 42 -113 6 -117 7 -225 60 -60 29 -127 56 -147 60 -102 17 22 34
256 34 145 0 233 -8 415 -37 120 -19 101 -30 170 97 24 44 46 78 48 76 3 -2 9
-23 14 -46z m5305 -75 l37 -71 96 17 c168 30 345 42 530 36 173 -6 229 -18
154 -32 -47 -9 -136 -46 -200 -83 -43 -26 -61 -29 -168 -36 -124 -7 -321 -32
-341 -44 -7 -5 -8 -18 -3 -37 l9 -31 97 16 c54 9 134 20 177 24 l79 7 -66 -71
c-36 -39 -87 -102 -113 -140 l-47 -69 -42 6 -42 5 -5 -136 c-2 -75 -9 -141
-14 -146 -6 -6 -41 8 -91 36 -93 50 -87 41 -123 214 -29 141 -42 302 -35 415
6 101 22 212 32 229 8 12 35 -25 79 -109z m-10094 -80 c213 -54 445 -98 633
-120 199 -23 196 -22 234 -66 l33 -39 -33 0 c-100 0 -500 58 -692 100 -105 24
-357 89 -368 95 -5 4 9 75 16 75 1 0 80 -20 177 -45z m14982 23 c14 -52 11
-54 -111 -87 -307 -80 -778 -161 -948 -161 l-39 0 39 40 c24 24 51 42 69 44
17 3 108 14 201 26 200 25 460 76 635 124 152 42 146 41 154 14z m-11278 -38
c-30 -28 -67 -70 -82 -95 -24 -37 -36 -46 -83 -59 -30 -9 -55 -15 -56 -13 -5
9 -33 143 -30 145 5 5 270 71 288 72 13 0 1 -16 -37 -50z m7523 9 c62 -15 115
-30 116 -31 7 -7 -33 -143 -41 -142 -48 6 -107 30 -116 48 -20 39 -81 108
-122 138 l-41 30 45 -7 c25 -4 96 -20 159 -36z m-6050 -148 c317 -140 635
-359 829 -572 l42 -47 -36 -6 c-33 -7 -40 -3 -100 51 -175 156 -365 294 -537
387 -83 46 -89 47 -143 40 -36 -4 -69 -2 -94 6 -36 12 -38 14 -44 71 -3 33 -9
71 -12 84 -3 14 -4 25 -1 25 4 0 46 -18 96 -39z m4538 25 c-3 -8 -9 -45 -12
-84 l-7 -70 -40 -11 c-24 -8 -61 -10 -93 -6 -51 7 -59 5 -142 -40 -182 -98
-345 -216 -524 -376 -71 -64 -78 -68 -113 -62 l-36 6 47 51 c194 212 490 417
813 562 105 48 115 50 107 30z m-9737 -96 c85 -21 184 -44 220 -51 58 -10 104
-29 72 -29 -16 0 -42 -53 -42 -87 0 -88 -113 -128 -234 -82 -101 37 -183 143
-201 258 -7 40 -6 43 11 37 10 -4 89 -25 174 -46z m15025 18 c-19 -94 -39
-134 -100 -195 -64 -64 -127 -93 -202 -93 -74 0 -133 46 -133 103 0 32 -24 83
-42 90 -18 7 -4 11 137 41 66 14 167 39 225 55 58 16 109 29 113 30 5 0 6 -14
2 -31z m-11478 -93 l-22 -60 -5 50 c-5 46 -3 51 20 62 14 6 26 10 27 9 1 -1
-8 -29 -20 -61z m7770 -6 l2 -54 -18 40 c-10 22 -21 50 -25 62 -7 21 -5 22 16
14 20 -7 23 -16 25 -62z m-6717 -526 c0 -10 3 -28 7 -41 5 -21 3 -23 -23 -20
-26 3 -29 7 -32 41 -3 34 -1 37 22 37 18 0 26 -5 26 -17z m5688 -20 c-3 -33
-7 -38 -30 -41 -30 -4 -31 -1 -22 47 5 24 12 31 31 31 22 0 24 -4 21 -37z
m-5386 -39 c151 -53 298 -125 423 -208 139 -93 211 -156 193 -167 -31 -20 -70
-8 -131 39 -78 60 -195 128 -317 186 -97 46 -320 126 -352 126 -25 0 -22 11
10 37 37 30 53 29 174 -13z m5204 15 c37 -22 44 -39 17 -39 -36 0 -294 -95
-396 -146 -99 -49 -215 -120 -309 -189 -31 -23 -43 -26 -73 -21 -37 7 -37 8
-18 28 27 31 160 130 236 177 96 58 207 113 317 154 177 66 178 66 226 36z
m-1619 -120 c-74 -38 -200 -158 -265 -252 -90 -131 -180 -334 -238 -535 l-24
-87 4 130 c8 226 62 453 152 646 l45 96 167 15 c234 21 226 22 159 -13z m230
-179 c48 -29 76 -92 77 -170 0 -76 -23 -129 -79 -178 -53 -47 -65 -43 -65 21
0 86 -35 99 -128 46 l-55 -31 6 101 c6 90 9 105 34 138 36 47 109 93 147 93
17 0 45 -9 63 -20z m-1297 -328 l0 -288 -72 -42 c-92 -52 -166 -83 -172 -73
-14 23 -27 114 -27 200 -1 172 64 318 193 436 34 30 65 55 70 55 4 0 8 -130 8
-288z m163 -508 l76 -7 -28 -41 c-74 -107 -199 -192 -320 -217 -74 -15 -193
-7 -266 20 -84 30 -88 36 -70 97 19 65 77 122 142 140 52 14 336 19 466 8z
m896 -134 c31 -88 65 -147 89 -153 9 -3 3 -5 -13 -6 -17 0 -45 -5 -63 -10 -19
-6 -30 -6 -27 -1 3 5 -3 26 -13 47 -21 41 -47 119 -57 171 -7 33 -6 33 25 30
31 -3 34 -7 59 -78z m792 -10 c18 0 20 -5 13 -47 -18 -126 -92 -232 -201 -291
l-59 -31 -26 32 -25 33 60 28 c105 49 187 162 187 257 0 24 4 30 16 25 9 -3
25 -6 35 -6z m-939 -213 c-20 -13 -29 0 -36 50 -4 27 -9 57 -12 68 -3 11 10
-9 28 -45 25 -49 30 -67 20 -73z m346 66 c-10 -2 -28 -2 -40 0 -13 2 -5 4 17
4 22 1 32 -1 23 -4z m243 -110 c13 -16 12 -17 -3 -4 -10 7 -18 15 -18 17 0 8
8 3 21 -13z m-1364 -95 c64 -132 185 -250 399 -386 224 -144 368 -246 363
-256 -3 -8 -238 -232 -375 -358 l-31 -29 -55 93 c-128 214 -210 416 -302 737
-74 257 -71 241 -43 241 17 0 28 -11 44 -42z"/>
<path d="M5935 14160 c-301 -34 -678 -195 -975 -418 -134 -100 -395 -370 -377
-388 3 -3 54 -15 114 -26 143 -25 525 -36 714 -19 470 43 911 180 1075 333 81
76 114 141 114 223 0 103 -56 171 -191 235 -116 54 -307 78 -474 60z"/>
<path d="M9659 12617 c-59 -22 -100 -52 -165 -119 -102 -104 -178 -232 -217
-365 l-16 -53 89 0 90 0 -86 -82 c-143 -138 -212 -262 -222 -404 -7 -104 16
-173 77 -234 78 -78 173 -81 318 -10 247 122 447 470 478 835 13 145 -26 298
-93 368 -60 64 -176 93 -253 64z"/>
<path d="M15764 12651 c-202 -52 -409 -335 -495 -679 -11 -46 -19 -86 -16 -89
3 -2 39 10 81 27 239 100 530 352 607 525 38 87 25 175 -31 205 -28 15 -108
21 -146 11z"/>
<path d="M7675 12658 c-218 -78 -510 -537 -581 -915 -23 -124 -16 -279 15
-351 46 -104 153 -162 261 -142 146 27 313 165 388 320 47 96 66 192 56 273
-8 61 -36 148 -64 193 l-19 33 91 3 92 3 18 70 c26 95 28 270 5 346 -42 138
-149 207 -262 167z"/>
<path d="M11187 22054 c-4 -39 -2 -52 11 -62 130 -98 263 -238 374 -393 33
-46 63 -89 67 -97 7 -12 13 -12 39 2 17 9 35 16 41 16 5 0 28 -28 51 -62 47
-69 45 -57 -7 77 -77 196 -171 353 -262 438 -63 59 -177 114 -252 123 l-56 6
-6 -48z"/>
<path d="M20138 18243 c6 -2 18 -2 25 0 6 3 1 5 -13 5 -14 0 -19 -2 -12 -5z"/>
</g>
</svg>
